<?xml version="1.0" encoding="iso-8859-1"?>
<!-- Generator: Adobe Illustrator 19.0.0, SVG Export Plug-In . SVG Version: 6.00 Build 0)  -->
<svg version="1.1" id="Layer_1" xmlns="http://www.w3.org/2000/svg" xmlns:xlink="http://www.w3.org/1999/xlink" x="0px" y="0px"
	 viewBox="0 0 511.999 511.999" style="enable-background:new 0 0 511.999 511.999;" xml:space="preserve">
<path style="fill:#1D1D1F;" d="M312.611,87.588c0.154-7.856-4.963-15.748-15.346-21.743L198.502,8.823
	c-20.376-11.764-53.306-11.764-73.549,0L26.829,65.848C16.74,71.711,11.707,79.389,11.718,87.075c0-0.025-0.001-0.049-0.001-0.074
	v225.028c-0.022,7.759,5.099,15.53,15.352,21.449l98.763,57.021c20.376,11.764,53.306,11.764,73.549,0l98.124-57.023
	c10.057-5.844,15.091-13.493,15.113-21.153V87.294C312.618,87.392,312.613,87.489,312.611,87.588z"/>
<path style="fill:#2E2E30;" d="M312.618,87.294v225.028c-0.022,7.66-5.056,15.309-15.113,21.153V108.447
	C307.562,102.603,312.596,94.954,312.618,87.294z"/>
<g>
	<path style="fill:#1D1D1F;" d="M11.716,312.028V87c-0.022,7.759,5.099,15.53,15.352,21.449v225.028
		C16.815,327.559,11.694,319.788,11.716,312.028z"/>
	<polygon style="fill:#1D1D1F;" points="297.505,108.447 297.505,333.475 199.381,390.499 199.381,165.47 	"/>
</g>
<polygon style="fill:#2E2E30;" points="125.832,165.471 125.832,390.499 27.068,333.478 27.068,108.45 "/>
<path style="fill:#3E3D43;" d="M199.381,165.47v225.028c-20.244,11.764-53.173,11.764-73.549,0V165.471
	C146.208,177.234,179.137,177.234,199.381,165.47z"/>
<path style="fill:#57565C;" d="M297.266,65.845c20.376,11.764,20.484,30.839,0.239,42.603l-98.124,57.023
	c-20.244,11.764-53.173,11.764-73.549,0L27.068,108.45C6.692,96.685,6.586,77.612,26.829,65.848l98.124-57.023
	c20.244-11.764,53.173-11.764,73.549,0L297.266,65.845z"/>
<path style="fill:#E0E0E2;" d="M162.656,164.389c-12.004,0-23.62-2.732-31.871-7.496L32.021,99.871
	c-6.604-3.812-10.393-8.481-10.4-12.811c-0.006-4.274,3.706-8.885,10.184-12.649l98.124-57.023
	c8.182-4.754,19.755-7.482,31.749-7.482c12.004,0,23.621,2.732,31.872,7.496l98.763,57.02c6.604,3.813,10.393,8.482,10.4,12.811
	c0.006,4.274-3.706,8.885-10.185,12.649l-98.124,57.023C186.222,161.661,174.65,164.389,162.656,164.389z"/>
<g>
	<path style="fill:#D8D8DA;" d="M63.801,93.889c0,0,0.269,7.326,2.065,8.019c1.796,0.693,8.107-0.878,8.107-0.878l1.355-5.243
		L63.801,93.889z"/>
	<path style="fill:#D8D8DA;" d="M68.313,59.278c0,0,3.5,4.113,4.856,3.694s4.286-4.21,4.286-4.21l-1.61-3.65L68.313,59.278z"/>
	<path style="fill:#D8D8DA;" d="M45.585,95.79c-0.96-0.426-5.2-9.867-2.724-11.496c2.476-1.629,4.786-2.867,4.786-2.867
		s3.881-0.743,3.881-3.219c0-2.476,2.229-7.924,2.972-7.924c0.743,0,13.125,0.495,14.857,0c1.732-0.495,11.144-8.42,11.887-7.924
		c0.743,0.495,3.467,1.486,4.21,2.476c0.743,0.991-6.439,5.448-8.915,9.41c-2.476,3.962-13.867,10.656-13.867,13.128
		s-8.172,1.482-8.172,1.482s1.486,3.962,1.486,4.953C55.986,94.799,47.813,96.78,45.585,95.79z"/>
</g>
<g>
	<path style="fill:#86BC06;" d="M179.576,127.988l44.186-25.511c4.876-2.816,7.312-6.512,7.302-10.201l-0.24-20.266
		c0,0.011-0.001,0.023-0.001,0.036c0.005-3.655-2.388-7.307-7.187-10.096l-43.9-25.512c-9.628-5.595-25.29-5.595-34.981,0
		l-44.185,25.511c-5.016,2.896-7.443,6.725-7.288,10.52c-0.004-0.106-0.014-0.212-0.014-0.318l0.24,20.266
		c0.01,3.644,2.404,7.281,7.188,10.06l43.9,25.512C154.224,133.583,169.886,133.583,179.576,127.988z"/>
	<path style="fill:#86BC06;" d="M93.509,92.416l-0.24-20.266c0.01,3.644,2.404,7.281,7.188,10.06l0.24,20.266
		C95.914,99.697,93.52,96.059,93.509,92.416z"/>
</g>
<path style="fill:#7AAB02;" d="M230.825,72.01l0.24,20.266c0.01,3.691-2.425,7.386-7.302,10.201l-0.24-20.266
	C228.4,79.397,230.835,75.701,230.825,72.01z"/>
<polygon style="fill:#86BC06;" points="144.356,107.724 144.596,127.988 100.697,102.477 100.457,82.212 "/>
<polygon style="fill:#7AAB02;" points="223.523,82.212 223.763,102.477 179.576,127.988 179.337,107.724 "/>
<path style="fill:#8FCC05;" d="M179.337,107.724l0.24,20.266c-9.691,5.595-25.353,5.595-34.981,0l-0.24-20.266
	C153.984,113.318,169.646,113.318,179.337,107.724z"/>
<path style="fill:#9CDD03;" d="M179.337,107.724c-9.691,5.595-25.353,5.595-34.981,0l-43.9-25.512
	c-9.628-5.595-9.576-14.667,0.114-20.262l44.187-25.511c9.691-5.595,25.353-5.595,34.981,0l43.9,25.512
	c9.628,5.595,9.576,14.667-0.114,20.262L179.337,107.724z"/>
<path style="fill:#1D1D1F;" d="M500.276,200.266c0.154-7.856-4.963-15.748-15.346-21.743l-98.763-57.021
	c-20.376-11.764-53.306-11.764-73.549,0l-98.124,57.023c-10.089,5.863-15.123,13.542-15.111,21.227c0-0.025-0.001-0.049-0.001-0.074
	v225.028c-0.022,7.759,5.099,15.53,15.352,21.449l98.763,57.021c20.376,11.764,53.306,11.764,73.549,0l98.124-57.023
	c10.057-5.844,15.091-13.493,15.113-21.153V199.972C500.283,200.07,500.278,200.167,500.276,200.266z"/>
<path style="fill:#2E2E30;" d="M500.283,199.972V425c-0.022,7.66-5.056,15.309-15.113,21.153V221.125
	C495.227,215.281,500.261,207.632,500.283,199.972z"/>
<g>
	<path style="fill:#1D1D1F;" d="M199.381,424.707V199.678c-0.022,7.759,5.099,15.53,15.352,21.449v225.028
		C204.48,440.237,199.359,432.466,199.381,424.707z"/>
	<polygon style="fill:#1D1D1F;" points="485.17,221.125 485.17,446.153 387.046,503.177 387.046,278.148 	"/>
</g>
<polygon style="fill:#2E2E30;" points="313.497,278.149 313.497,503.177 214.734,446.156 214.734,221.128 "/>
<path style="fill:#3E3D43;" d="M387.046,278.148v225.028c-20.244,11.764-53.173,11.764-73.549,0V278.149
	C333.873,289.912,366.803,289.912,387.046,278.148z"/>
<path style="fill:#57565C;" d="M484.931,178.523c20.376,11.764,20.484,30.839,0.239,42.603l-98.124,57.022
	c-20.244,11.764-53.173,11.764-73.549,0l-98.763-57.021c-20.376-11.764-20.484-30.839-0.239-42.603l98.124-57.023
	c20.244-11.764,53.173-11.764,73.549,0L484.931,178.523z"/>
<path style="fill:#E0E0E2;" d="M350.321,277.067c-12.004,0-23.62-2.732-31.871-7.496l-98.763-57.021
	c-6.604-3.812-10.393-8.481-10.4-12.811c-0.006-4.274,3.706-8.885,10.184-12.649l98.124-57.023
	c8.182-4.755,19.755-7.482,31.749-7.482c12.004,0,23.621,2.732,31.872,7.496l98.763,57.02c6.604,3.813,10.393,8.482,10.4,12.811
	c0.006,4.274-3.706,8.885-10.184,12.649l-98.124,57.023C373.887,274.34,362.315,277.067,350.321,277.067z"/>
<g>
	<path style="fill:#D8D8DA;" d="M251.465,206.567c0,0,0.269,7.326,2.065,8.019c1.796,0.694,8.107-0.878,8.107-0.878l1.355-5.243
		L251.465,206.567z"/>
	<path style="fill:#D8D8DA;" d="M255.978,171.956c0,0,3.5,4.113,4.856,3.694c1.355-0.419,4.286-4.21,4.286-4.21l-1.61-3.65
		L255.978,171.956z"/>
	<path style="fill:#D8D8DA;" d="M233.25,208.468c-0.96-0.426-5.2-9.867-2.724-11.496c2.476-1.629,4.786-2.867,4.786-2.867
		s3.881-0.743,3.881-3.219c0-2.476,2.229-7.924,2.972-7.924s13.125,0.495,14.857,0c1.732-0.495,11.144-8.42,11.887-7.924
		c0.743,0.495,3.467,1.486,4.21,2.476c0.743,0.991-6.439,5.448-8.915,9.41c-2.476,3.962-13.867,10.656-13.867,13.128
		c0,2.472-8.172,1.482-8.172,1.482s1.486,3.962,1.486,4.953C243.65,207.477,235.479,209.459,233.25,208.468z"/>
</g>
<g>
	<path style="fill:#FF9911;" d="M367.242,240.666l44.186-25.511c4.876-2.816,7.312-6.512,7.302-10.201l-0.24-20.266
		c0,0.011-0.001,0.023-0.001,0.036c0.005-3.655-2.388-7.307-7.187-10.096l-43.9-25.512c-9.628-5.595-25.289-5.595-34.981,0
		l-44.186,25.511c-5.016,2.896-7.443,6.725-7.288,10.52c-0.004-0.106-0.014-0.212-0.014-0.318l0.24,20.266
		c0.01,3.644,2.404,7.281,7.188,10.06l43.9,25.512C341.888,246.261,357.551,246.261,367.242,240.666z"/>
	<path style="fill:#FF9911;" d="M281.174,205.094l-0.24-20.266c0.01,3.644,2.404,7.281,7.188,10.06l0.24,20.266
		C283.579,212.375,281.185,208.738,281.174,205.094z"/>
</g>
<path style="fill:#F18700;" d="M418.49,184.689l0.24,20.266c0.01,3.691-2.425,7.386-7.302,10.202l-0.24-20.266
	C416.065,192.075,418.5,188.379,418.49,184.689z"/>
<polygon style="fill:#FF9911;" points="332.022,220.402 332.261,240.666 288.362,215.155 288.122,194.89 "/>
<polygon style="fill:#F18700;" points="411.188,194.89 411.429,215.155 367.242,240.666 367.002,220.402 "/>
<path style="fill:#FFA834;" d="M367.002,220.402l0.24,20.266c-9.691,5.595-25.353,5.595-34.981,0l-0.24-20.266
	C341.649,225.996,357.311,225.996,367.002,220.402z"/>
<path style="fill:#FFB657;" d="M367.002,220.402c-9.691,5.595-25.353,5.595-34.981,0l-43.9-25.512
	c-9.628-5.595-9.576-14.667,0.114-20.262l44.187-25.511c9.691-5.595,25.353-5.595,34.981,0l43.9,25.512
	c9.628,5.595,9.576,14.667-0.114,20.262L367.002,220.402z"/>
<g>
</g>
<g>
</g>
<g>
</g>
<g>
</g>
<g>
</g>
<g>
</g>
<g>
</g>
<g>
</g>
<g>
</g>
<g>
</g>
<g>
</g>
<g>
</g>
<g>
</g>
<g>
</g>
<g>
</g>
</svg>
